<svg width="125" height="26" viewBox="0 0 125 26" fill="none" xmlns="http://www.w3.org/2000/svg">
<rect x="0.5" y="0.5" width="124" height="25" fill="#292929" stroke="#3E56D1"/>
<path d="M15.36 16.1C14.7467 16.1 14.2133 15.9533 13.76 15.66C13.3067 15.3667 12.9567 14.95 12.71 14.41C12.4633 13.87 12.34 13.2333 12.34 12.5C12.34 11.7667 12.4633 11.13 12.71 10.59C12.9633 10.05 13.32 9.63333 13.78 9.34C14.24 9.04667 14.78 8.9 15.4 8.9C15.8933 8.9 16.3333 8.99667 16.72 9.19C17.1067 9.38333 17.3933 9.65 17.58 9.99L17.06 10.5C16.6933 9.94 16.1433 9.66 15.41 9.66C14.7367 9.66 14.21 9.91 13.83 10.41C13.4567 10.9033 13.27 11.6 13.27 12.5C13.27 13.3933 13.4533 14.09 13.82 14.59C14.1933 15.09 14.7067 15.34 15.36 15.34C15.76 15.34 16.0967 15.2733 16.37 15.14C16.65 15 16.88 14.7867 17.06 14.5L17.58 15.01C17.3867 15.3567 17.0967 15.6267 16.71 15.82C16.3233 16.0067 15.8733 16.1 15.36 16.1ZM18.5196 12.22C18.5196 11.6533 18.5096 11.2467 18.4896 11H19.2796C19.3063 11.2667 19.3196 11.56 19.3196 11.88V11.98H19.3496C19.4763 11.6333 19.6796 11.3667 19.9596 11.18C20.2396 10.9933 20.5696 10.9 20.9496 10.9C21.0563 10.9 21.1529 10.91 21.2396 10.93V11.63C21.1529 11.61 21.0363 11.6 20.8896 11.6C20.6096 11.6 20.3529 11.6867 20.1196 11.86C19.8863 12.0267 19.7029 12.2567 19.5696 12.55C19.4363 12.8433 19.3696 13.1633 19.3696 13.51V16H18.5196V12.22ZM26.1657 13.83H22.5657C22.6124 14.3367 22.7624 14.7233 23.0157 14.99C23.269 15.25 23.619 15.38 24.0657 15.38C24.6657 15.38 25.1424 15.1433 25.4957 14.67L25.9757 15.13C25.7824 15.4367 25.5124 15.6767 25.1657 15.85C24.8257 16.0167 24.449 16.1 24.0357 16.1C23.2957 16.1 22.7224 15.8733 22.3157 15.42C21.909 14.9667 21.7057 14.33 21.7057 13.51C21.7057 12.6967 21.909 12.06 22.3157 11.6C22.729 11.1333 23.2957 10.9 24.0157 10.9C24.689 10.9 25.2157 11.13 25.5957 11.59C25.9757 12.0433 26.1657 12.68 26.1657 13.5V13.83ZM25.3857 13.13C25.3857 12.65 25.259 12.2733 25.0057 12C24.759 11.7267 24.4157 11.59 23.9757 11.59C23.5624 11.59 23.2324 11.73 22.9857 12.01C22.7457 12.29 22.6057 12.6867 22.5657 13.2H25.3857V13.13ZM28.6015 16.1C28.1082 16.1 27.7048 15.9567 27.3915 15.67C27.0782 15.3833 26.9215 15.0133 26.9215 14.56C26.9215 14.06 27.1082 13.6733 27.4815 13.4C27.8615 13.1267 28.3982 12.99 29.0915 12.99H30.1215V12.73C30.1215 12.3567 30.0215 12.0733 29.8215 11.88C29.6282 11.68 29.3448 11.58 28.9715 11.58C28.6715 11.58 28.3948 11.6433 28.1415 11.77C27.8948 11.89 27.6882 12.0667 27.5215 12.3L27.0915 11.78C27.3182 11.4933 27.5948 11.2767 27.9215 11.13C28.2482 10.9767 28.6115 10.9 29.0115 10.9C29.6382 10.9 30.1215 11.0533 30.4615 11.36C30.8015 11.6667 30.9715 12.1067 30.9715 12.68V15.03C30.9715 15.29 31.0115 15.6133 31.0915 16H30.3515C30.2915 15.8467 30.2482 15.6133 30.2215 15.3H30.2015C30.0148 15.56 29.7848 15.76 29.5115 15.9C29.2382 16.0333 28.9348 16.1 28.6015 16.1ZM28.7315 15.43C28.9848 15.43 29.2182 15.3833 29.4315 15.29C29.6448 15.19 29.8115 15.0567 29.9315 14.89C30.0582 14.7233 30.1215 14.54 30.1215 14.34V13.6H29.0615C28.6415 13.6 28.3182 13.6833 28.0915 13.85C27.8648 14.0167 27.7515 14.2533 27.7515 14.56C27.7515 14.8267 27.8382 15.04 28.0115 15.2C28.1915 15.3533 28.4315 15.43 28.7315 15.43ZM34.0782 16.1C33.6382 16.1 33.2915 15.96 33.0382 15.68C32.7849 15.3933 32.6582 15 32.6582 14.5V11.66H31.7582V11H32.6582V9.67L33.4682 9.42H33.5082V11H34.9282V11.66H33.5082V14.42C33.5082 14.76 33.5715 15.0133 33.6982 15.18C33.8249 15.34 34.0215 15.42 34.2882 15.42C34.5749 15.42 34.8082 15.3833 34.9882 15.31L35.0482 15.94C34.8282 16.0467 34.5049 16.1 34.0782 16.1ZM40.2477 13.83H36.6477C36.6944 14.3367 36.8444 14.7233 37.0977 14.99C37.3511 15.25 37.7011 15.38 38.1477 15.38C38.7477 15.38 39.2244 15.1433 39.5777 14.67L40.0577 15.13C39.8644 15.4367 39.5944 15.6767 39.2477 15.85C38.9077 16.0167 38.5311 16.1 38.1177 16.1C37.3777 16.1 36.8044 15.8733 36.3977 15.42C35.9911 14.9667 35.7877 14.33 35.7877 13.51C35.7877 12.6967 35.9911 12.06 36.3977 11.6C36.8111 11.1333 37.3777 10.9 38.0977 10.9C38.7711 10.9 39.2977 11.13 39.6777 11.59C40.0577 12.0433 40.2477 12.68 40.2477 13.5V13.83ZM39.4677 13.13C39.4677 12.65 39.3411 12.2733 39.0877 12C38.8411 11.7267 38.4977 11.59 38.0577 11.59C37.6444 11.59 37.3144 11.73 37.0677 12.01C36.8277 12.29 36.6877 12.6867 36.6477 13.2H39.4677V13.13ZM47.5452 11L45.7352 16.09C45.2752 17.3767 44.5652 18.02 43.6052 18.02C43.4318 18.02 43.2452 17.9967 43.0452 17.95V17.3C43.1652 17.34 43.3118 17.36 43.4852 17.36C43.8252 17.36 44.1152 17.2367 44.3552 16.99C44.5952 16.7433 44.8252 16.3267 45.0452 15.74L43.1852 11H44.0952L45.4352 14.83L46.6252 11H47.5452ZM50.3366 16.1C49.8433 16.1 49.4133 15.9967 49.0466 15.79C48.6866 15.5767 48.4066 15.2733 48.2066 14.88C48.0133 14.4867 47.9166 14.0267 47.9166 13.5C47.9166 12.9733 48.0133 12.5133 48.2066 12.12C48.4066 11.7267 48.6866 11.4267 49.0466 11.22C49.4133 11.0067 49.8433 10.9 50.3366 10.9C51.0833 10.9 51.6733 11.1333 52.1066 11.6C52.5466 12.0667 52.7666 12.7 52.7666 13.5C52.7666 14.3 52.5466 14.9333 52.1066 15.4C51.6733 15.8667 51.0833 16.1 50.3366 16.1ZM50.3366 15.45C50.83 15.45 51.2166 15.2767 51.4966 14.93C51.7766 14.5833 51.9166 14.1067 51.9166 13.5C51.9166 12.8933 51.7766 12.4167 51.4966 12.07C51.2166 11.7233 50.83 11.55 50.3366 11.55C49.85 11.55 49.4666 11.7233 49.1866 12.07C48.9066 12.4167 48.7666 12.8933 48.7666 13.5C48.7666 14.1067 48.9066 14.5833 49.1866 14.93C49.4666 15.2767 49.85 15.45 50.3366 15.45ZM55.483 16.1C54.9097 16.1 54.473 15.9133 54.173 15.54C53.8797 15.1667 53.733 14.6167 53.733 13.89V11H54.583V13.9C54.583 14.9133 54.943 15.42 55.663 15.42C55.943 15.42 56.1964 15.35 56.423 15.21C56.6497 15.0633 56.8264 14.8633 56.953 14.61C57.0797 14.35 57.143 14.06 57.143 13.74V11H57.993V14.94C57.993 15.2733 58.023 15.6267 58.083 16H57.303C57.243 15.7067 57.2097 15.41 57.203 15.11H57.173C57.0264 15.4167 56.7997 15.66 56.493 15.84C56.193 16.0133 55.8564 16.1 55.483 16.1ZM61.0606 16.1C60.6206 16.1 60.274 15.96 60.0206 15.68C59.7673 15.3933 59.6406 15 59.6406 14.5V11.66H58.7406V11H59.6406V9.67L60.4506 9.42H60.4906V11H61.9106V11.66H60.4906V14.42C60.4906 14.76 60.554 15.0133 60.6806 15.18C60.8073 15.34 61.004 15.42 61.2706 15.42C61.5573 15.42 61.7906 15.3833 61.9706 15.31L62.0306 15.94C61.8106 16.0467 61.4873 16.1 61.0606 16.1ZM64.7702 16.1C64.1968 16.1 63.7602 15.9133 63.4602 15.54C63.1668 15.1667 63.0202 14.6167 63.0202 13.89V11H63.8702V13.9C63.8702 14.9133 64.2302 15.42 64.9502 15.42C65.2302 15.42 65.4835 15.35 65.7102 15.21C65.9368 15.0633 66.1135 14.8633 66.2402 14.61C66.3668 14.35 66.4302 14.06 66.4302 13.74V11H67.2802V14.94C67.2802 15.2733 67.3102 15.6267 67.3702 16H66.5902C66.5302 15.7067 66.4968 15.41 66.4902 15.11H66.4602C66.3135 15.4167 66.0868 15.66 65.7802 15.84C65.4802 16.0133 65.1435 16.1 64.7702 16.1ZM70.9077 16.1C70.5944 16.1 70.2911 16.02 69.9977 15.86C69.7044 15.6933 69.4844 15.4767 69.3377 15.21H69.3177C69.3244 15.4233 69.3177 15.6867 69.2977 16H68.5177C68.5377 15.78 68.5477 15.36 68.5477 14.74V8.58H69.3977V11.67H69.4177C69.7511 11.1567 70.2544 10.9 70.9277 10.9C71.5677 10.9 72.0744 11.1267 72.4477 11.58C72.8211 12.0267 73.0077 12.6367 73.0077 13.41C73.0077 14.2433 72.8177 14.9 72.4377 15.38C72.0644 15.86 71.5544 16.1 70.9077 16.1ZM70.7877 15.42C71.2144 15.42 71.5477 15.2433 71.7877 14.89C72.0344 14.5367 72.1577 14.05 72.1577 13.43C72.1577 12.8367 72.0344 12.3767 71.7877 12.05C71.5477 11.7167 71.2144 11.55 70.7877 11.55C70.3744 11.55 70.0377 11.6933 69.7777 11.98C69.5244 12.26 69.3977 12.63 69.3977 13.09V14C69.3977 14.4333 69.5211 14.78 69.7677 15.04C70.0211 15.2933 70.3611 15.42 70.7877 15.42ZM78.1677 13.83H74.5677C74.6143 14.3367 74.7643 14.7233 75.0177 14.99C75.271 15.25 75.621 15.38 76.0677 15.38C76.6677 15.38 77.1443 15.1433 77.4977 14.67L77.9777 15.13C77.7843 15.4367 77.5143 15.6767 77.1677 15.85C76.8277 16.0167 76.451 16.1 76.0377 16.1C75.2977 16.1 74.7243 15.8733 74.3177 15.42C73.911 14.9667 73.7077 14.33 73.7077 13.51C73.7077 12.6967 73.911 12.06 74.3177 11.6C74.731 11.1333 75.2977 10.9 76.0177 10.9C76.691 10.9 77.2177 11.13 77.5977 11.59C77.9777 12.0433 78.1677 12.68 78.1677 13.5V13.83ZM77.3877 13.13C77.3877 12.65 77.261 12.2733 77.0077 12C76.761 11.7267 76.4177 11.59 75.9777 11.59C75.5643 11.59 75.2343 11.73 74.9877 12.01C74.7477 12.29 74.6077 12.6867 74.5677 13.2H77.3877V13.13ZM81.5851 12.26C81.5851 11.8333 81.5717 11.4133 81.5451 11H82.3251C82.3451 11.2467 82.3551 11.51 82.3551 11.79H82.3751C82.5151 11.5233 82.7317 11.31 83.0251 11.15C83.3184 10.9833 83.6351 10.9 83.9751 10.9C84.6217 10.9 85.1284 11.13 85.4951 11.59C85.8617 12.05 86.0451 12.6867 86.0451 13.5C86.0451 14.0267 85.9584 14.4867 85.7851 14.88C85.6117 15.2667 85.3651 15.5667 85.0451 15.78C84.7317 15.9933 84.3651 16.1 83.9451 16.1C83.5984 16.1 83.2951 16.0333 83.0351 15.9C82.7751 15.7667 82.5851 15.58 82.4651 15.34H82.4351V18.42H81.5851V12.26ZM83.8151 15.45C84.2417 15.45 84.5784 15.2733 84.8251 14.92C85.0717 14.56 85.1951 14.0767 85.1951 13.47C85.1951 12.8633 85.0751 12.3967 84.8351 12.07C84.5951 11.7433 84.2584 11.58 83.8251 11.58C83.4184 11.58 83.0851 11.7133 82.8251 11.98C82.5651 12.2467 82.4351 12.5867 82.4351 13V13.91C82.4351 14.37 82.5617 14.7433 82.8151 15.03C83.0684 15.31 83.4017 15.45 83.8151 15.45ZM88.1843 16.1C87.4643 16.1 87.1043 15.6767 87.1043 14.83V8.58H87.9543V14.82C87.9543 15.0533 87.991 15.22 88.0643 15.32C88.1443 15.4133 88.2776 15.46 88.4643 15.46C88.611 15.46 88.7776 15.42 88.9643 15.34L89.0943 15.85C88.841 16.0167 88.5376 16.1 88.1843 16.1ZM91.3945 16.1C90.9011 16.1 90.4978 15.9567 90.1845 15.67C89.8711 15.3833 89.7145 15.0133 89.7145 14.56C89.7145 14.06 89.9011 13.6733 90.2745 13.4C90.6545 13.1267 91.1911 12.99 91.8845 12.99H92.9145V12.73C92.9145 12.3567 92.8145 12.0733 92.6145 11.88C92.4211 11.68 92.1378 11.58 91.7645 11.58C91.4645 11.58 91.1878 11.6433 90.9345 11.77C90.6878 11.89 90.4811 12.0667 90.3145 12.3L89.8845 11.78C90.1111 11.4933 90.3878 11.2767 90.7145 11.13C91.0411 10.9767 91.4045 10.9 91.8045 10.9C92.4311 10.9 92.9145 11.0533 93.2545 11.36C93.5945 11.6667 93.7645 12.1067 93.7645 12.68V15.03C93.7645 15.29 93.8045 15.6133 93.8845 16H93.1445C93.0845 15.8467 93.0411 15.6133 93.0145 15.3H92.9945C92.8078 15.56 92.5778 15.76 92.3045 15.9C92.0311 16.0333 91.7278 16.1 91.3945 16.1ZM91.5245 15.43C91.7778 15.43 92.0111 15.3833 92.2245 15.29C92.4378 15.19 92.6045 15.0567 92.7245 14.89C92.8511 14.7233 92.9145 14.54 92.9145 14.34V13.6H91.8545C91.4345 13.6 91.1111 13.6833 90.8845 13.85C90.6578 14.0167 90.5445 14.2533 90.5445 14.56C90.5445 14.8267 90.6311 15.04 90.8045 15.2C90.9845 15.3533 91.2245 15.43 91.5245 15.43ZM98.9612 11L97.1512 16.09C96.6912 17.3767 95.9812 18.02 95.0212 18.02C94.8478 18.02 94.6612 17.9967 94.4612 17.95V17.3C94.5812 17.34 94.7278 17.36 94.9012 17.36C95.2412 17.36 95.5312 17.2367 95.7712 16.99C96.0112 16.7433 96.2412 16.3267 96.4612 15.74L94.6012 11H95.5112L96.8512 14.83L98.0412 11H98.9612ZM100.85 16.1C100.13 16.1 99.7703 15.6767 99.7703 14.83V8.58H100.62V14.82C100.62 15.0533 100.657 15.22 100.73 15.32C100.81 15.4133 100.944 15.46 101.13 15.46C101.277 15.46 101.444 15.42 101.63 15.34L101.76 15.85C101.507 16.0167 101.204 16.1 100.85 16.1ZM103.2 10.13C103.014 10.13 102.867 10.08 102.76 9.98C102.654 9.88 102.6 9.74333 102.6 9.57C102.6 9.39667 102.654 9.26 102.76 9.16C102.867 9.05333 103.014 9 103.2 9C103.387 9 103.534 9.05333 103.64 9.16C103.754 9.26 103.81 9.39667 103.81 9.57C103.81 9.74333 103.754 9.88 103.64 9.98C103.534 10.08 103.387 10.13 103.2 10.13ZM102.78 11H103.63V16H102.78V11ZM106.432 16.1C106.058 16.1 105.718 16.0233 105.412 15.87C105.112 15.7167 104.898 15.5133 104.772 15.26L105.322 14.88C105.435 15.06 105.592 15.2 105.792 15.3C105.992 15.4 106.208 15.45 106.442 15.45C106.722 15.45 106.952 15.37 107.132 15.21C107.318 15.0433 107.412 14.8367 107.412 14.59C107.412 14.39 107.338 14.2233 107.192 14.09C107.045 13.9567 106.785 13.82 106.412 13.68C105.845 13.4733 105.445 13.2567 105.212 13.03C104.985 12.8033 104.872 12.5233 104.872 12.19C104.872 11.8033 105.025 11.4933 105.332 11.26C105.638 11.02 106.045 10.9 106.552 10.9C106.878 10.9 107.175 10.97 107.442 11.11C107.715 11.25 107.925 11.4433 108.072 11.69L107.552 12.07C107.318 11.7233 106.985 11.55 106.552 11.55C106.305 11.55 106.102 11.6067 105.942 11.72C105.788 11.8333 105.712 11.98 105.712 12.16C105.712 12.34 105.792 12.4933 105.952 12.62C106.112 12.74 106.408 12.8833 106.842 13.05C107.355 13.2433 107.718 13.4567 107.932 13.69C108.145 13.9167 108.252 14.2067 108.252 14.56C108.252 15.0267 108.085 15.4 107.752 15.68C107.418 15.96 106.978 16.1 106.432 16.1ZM111.012 16.1C110.572 16.1 110.225 15.96 109.972 15.68C109.718 15.3933 109.592 15 109.592 14.5V11.66H108.692V11H109.592V9.67L110.402 9.42H110.442V11H111.862V11.66H110.442V14.42C110.442 14.76 110.505 15.0133 110.632 15.18C110.758 15.34 110.955 15.42 111.222 15.42C111.508 15.42 111.742 15.3833 111.922 15.31L111.982 15.94C111.762 16.0467 111.438 16.1 111.012 16.1Z" fill="#3E56D1"/>
</svg>
